<svg viewBox="0 0 150 150" xmlns="http://www.w3.org/2000/svg" xmlns:xlink="http://www.w3.org/1999/xlink" width="150.000000" height="150.000000" fill="none">
	<defs>
		<clipPath id="clipPath_0">
			<rect width="75.000000" height="61.928574" x="38.000000" y="23.000000" fill="rgb(255,255,255)" />
		</clipPath>
	</defs>
	<rect id="Фрейм 33" width="150.000000" height="150.000000" x="0.000000" y="0.000000" fill="rgb(255,255,255)" />
	<g id="Logo 1" clip-path="url(#clipPath_0)" customFrame="url(#clipPath_0)">
		<rect id="Logo 1" width="75.000000" height="61.928574" x="38.000000" y="23.000000" />
		<path id="Вектор 22" d="M74.5976 59.8008L66.584 59.8008C67.22 68.6947 83.9032 68.6947 84.7567 59.8008L76.5331 59.8008L75.5653 63.4149L74.5976 59.8008Z" fill="rgb(108,117,125)" fill-rule="nonzero" />
		<path id="Вектор 23" d="M69.8881 48.1055L66.584 48.1055C66.7528 45.7439 68.0531 44.0096 69.8881 42.9023L69.8881 48.1055Z" fill="rgb(108,117,125)" fill-rule="nonzero" />
		<path id="Вектор 24" d="M76.4965 41.4681C77.6392 41.5495 78.7649 41.7849 79.8005 42.1744L79.8005 48.1055L76.4965 48.1055L76.4965 41.4681Z" fill="rgb(108,117,125)" fill-rule="nonzero" />
		<path id="Вектор 25" d="M81.4526 42.9805C83.2481 44.0904 84.5353 45.798 84.7567 48.1055L81.4526 48.1055L81.4526 42.9805Z" fill="rgb(108,117,125)" fill-rule="nonzero" />
		<path id="Вектор 26" d="M74.8443 48.1055L71.5402 48.1055L71.5402 42.1206C72.5754 41.7454 73.7011 41.5241 74.8443 41.4573L74.8443 48.1055Z" fill="rgb(108,117,125)" fill-rule="nonzero" />
		<path id="Вектор 27" d="M75.4811 84.9286C50.7587 84.9286 38 72.3836 38 53.9643C38 35.5449 50.7587 23 75.4811 23C100.241 23 113 35.5449 113 53.9643C113 72.3836 100.241 84.9286 75.4811 84.9286ZM62.5709 53.9643C62.5709 63.932 67.9091 69.0106 75.4811 69.0106C83.0909 69.0106 88.4291 63.932 88.4291 53.9643C88.4291 43.9966 83.0909 38.8801 75.4811 38.8801C67.9091 38.8801 62.5709 43.9966 62.5709 53.9643Z" fill="rgb(108,117,125)" fill-rule="nonzero" />
	</g>
	<ellipse id="Эллипс 2" rx="75.000000" ry="52.000000" cx="75" cy="150" fill="rgb(108,117,125)" />
</svg>
