<svg width="452" height="105" viewBox="0 0 452 105" fill="none" xmlns="http://www.w3.org/2000/svg">
<path d="M63.36 104.704C21.568 104.704 0 83.52 0 52.416C0 21.312 21.568 0.128006 63.36 0.128006C105.216 0.128006 126.784 21.312 126.784 52.416C126.784 83.52 105.216 104.704 63.36 104.704ZM41.536 52.416C41.536 69.248 50.56 77.824 63.36 77.824C76.224 77.824 85.248 69.248 85.248 52.416C85.248 35.584 76.224 26.944 63.36 26.944C50.56 26.944 41.536 35.584 41.536 52.416Z" fill="white"/>
<path d="M133.328 95.04V67.584C150.864 74.88 164.176 77.44 184.976 77.44C193.424 77.44 197.648 75.84 197.648 72.768C197.648 70.336 195.216 69.056 187.728 67.84L163.024 63.744C141.008 60.096 130.96 48.704 130.96 33.088C130.96 11.712 149.84 0 184.784 0C200.912 0 218.064 2.496 231.12 6.912L230.16 33.792C218.64 29.568 203.984 26.88 184.848 26.88C176.336 26.88 172.304 28.352 172.304 31.232C172.304 33.792 175.312 35.2 183.056 36.48L206.224 40.256C227.728 43.776 238.928 54.656 238.928 71.872C238.928 93.568 221.072 104.704 185.04 104.704C164.368 104.704 148.752 101.056 133.328 95.04Z" fill="white"/>
<path d="M334.836 101.056H244.34V3.776H334.836V30.016H282.74V41.024H330.228V62.976H282.74V74.816H334.836V101.056Z" fill="white"/>
<path d="M451.393 101.12H407.489L380.865 60.736V101.056H342.465V3.776H380.865V37.504C380.865 41.408 380.225 44.736 379.009 47.232L376.129 53.12H377.473L407.745 3.776H449.217L419.329 52.608L451.393 101.12Z" fill="white"/>
<path d="M61.6721 63.056H47.12C48.2747 79.056 78.5702 79.056 80.12 63.056H65.1867L63.4294 69.5576L61.6721 63.056Z" fill="white"/>
<path d="M53.12 42.016H47.12C47.4266 37.7675 49.7879 34.6476 53.12 32.6556V42.016Z" fill="white"/>
<path d="M65.12 30.0755C67.1954 30.2219 69.2394 30.6454 71.12 31.346V42.016H65.12V30.0755Z" fill="white"/>
<path d="M74.12 32.7962C77.3806 34.793 79.718 37.8652 80.12 42.016H74.12V32.7962Z" fill="white"/>
<path d="M62.12 42.016H56.12V31.2494C57.9999 30.5743 60.0438 30.1762 62.12 30.056V42.016Z" fill="white"/>
</svg>
