<svg width="1139" height="264" viewBox="0 0 1139 264" fill="none" xmlns="http://www.w3.org/2000/svg">
<path d="M156.108 157.012H121.926C124.638 194.88 195.801 194.88 199.442 157.012H164.364L160.236 172.4L156.108 157.012Z" fill="currentColor"/>
<path d="M136.02 107.216H121.926C122.646 97.1607 128.193 89.7767 136.02 85.0622V107.216Z" fill="currentColor"/>
<path d="M164.207 78.9558C169.082 79.3023 173.884 80.3045 178.301 81.9628V107.216H164.207V78.9558Z" fill="currentColor"/>
<path d="M185.348 85.395C193.007 90.1207 198.497 97.392 199.442 107.216H185.348V85.395Z" fill="currentColor"/>
<path d="M157.16 107.216H143.067V81.7339C147.482 80.1363 152.283 79.194 157.16 78.9096V107.216Z" fill="currentColor"/>
<path d="M159.876 264C54.4225 264 0 210.587 0 132.161C0 53.736 54.4225 0.322753 159.876 0.322753C265.492 0.322753 319.914 53.736 319.914 132.161C319.914 210.587 265.492 264 159.876 264ZM104.808 132.161C104.808 174.601 127.578 196.225 159.876 196.225C192.336 196.225 215.106 174.601 215.106 132.161C215.106 89.7213 192.336 67.9364 159.876 67.9364C127.578 67.9364 104.808 89.7213 104.808 132.161Z" fill="currentColor"/>
<path d="M336.427 239.633V170.406C380.675 188.802 414.265 195.257 466.75 195.257C488.067 195.257 498.725 191.223 498.725 183.477C498.725 177.345 492.589 174.117 473.694 171.051L411.358 160.724C355.805 151.526 330.451 122.802 330.451 83.4279C330.451 29.5306 378.091 0 466.265 0C506.961 0 550.241 6.2934 583.185 17.4279L580.763 85.203C551.694 74.5526 514.713 67.7751 466.427 67.7751C444.949 67.7751 434.775 71.4866 434.775 78.7482C434.775 85.203 442.365 88.7531 461.905 91.9804L520.365 101.501C574.626 110.377 602.887 137.809 602.887 181.218C602.887 235.922 557.831 264 466.911 264C414.75 264 375.346 254.802 336.427 239.633Z" fill="currentColor"/>
<path d="M844.892 254.802H616.543V9.52078H844.892V75.6822H713.438V103.438H833.264V158.787H713.438V188.641H844.892V254.802Z" fill="currentColor"/>
<path d="M1139 254.963H1028.22L961.037 153.139V254.802H864.142V9.52078H961.037V94.5624C961.037 104.406 959.422 112.797 956.353 119.09L949.086 133.936H952.478L1028.86 9.52078H1133.51L1058.09 132.645L1139 254.963Z" fill="currentColor"/>
</svg>
